<?xml version="1.0" standalone="no"?>
<!DOCTYPE svg PUBLIC "-//W3C//DTD SVG 20010904//EN"
 "http://www.w3.org/TR/2001/REC-SVG-20010904/DTD/svg10.dtd">
<svg version="1.0" xmlns="http://www.w3.org/2000/svg"
 width="512.000000pt" height="512.000000pt" viewBox="0 0 512.000000 512.000000"
 preserveAspectRatio="xMidYMid meet">

<g transform="translate(0.000000,512.000000) scale(0.100000,-0.100000)"
fill="#000000" stroke="none">
<path d="M4216 4989 c-365 -98 -486 -135 -504 -152 -40 -37 -55 -75 -49 -131
4 -42 10 -55 45 -88 40 -37 66 -45 127 -38 11 1 145 35 297 76 152 41 282 74
288 74 14 0 -19 -59 -113 -200 -487 -729 -1260 -1391 -2127 -1819 -647 -320
-1257 -484 -1903 -510 -155 -6 -180 -10 -204 -27 -94 -70 -95 -190 -3 -252 35
-24 37 -24 230 -19 906 26 1914 387 2795 1000 297 207 551 421 825 696 286
287 464 504 660 803 58 89 101 145 104 137 3 -8 35 -126 71 -264 36 -137 72
-264 80 -282 16 -36 77 -81 115 -83 65 -5 83 1 120 38 67 67 68 56 -76 595
-75 282 -137 493 -149 511 -24 37 -78 66 -120 65 -16 0 -246 -59 -509 -130z"/>
<path d="M3988 3389 c-23 -12 -46 -35 -58 -59 -20 -39 -20 -56 -20 -1535 l0
-1495 -150 0 -150 0 0 995 c0 978 0 996 -20 1035 -13 26 -34 47 -60 60 -37 19
-58 20 -370 20 -312 0 -333 -1 -370 -20 -26 -13 -47 -34 -60 -60 -20 -39 -20
-57 -20 -1035 l0 -995 -150 0 -150 0 0 720 c0 703 -1 722 -20 760 -13 26 -34
47 -60 60 -37 19 -58 20 -370 20 -312 0 -333 -1 -370 -20 -26 -13 -47 -34 -60
-60 -19 -38 -20 -57 -20 -760 l0 -720 -150 0 -150 0 0 540 c0 522 -1 542 -20
580 -13 26 -34 47 -60 60 -37 19 -58 20 -370 20 -312 0 -333 -1 -370 -20 -26
-13 -47 -34 -60 -60 -19 -38 -20 -58 -20 -580 l0 -540 -95 0 c-76 0 -104 -4
-135 -20 -45 -23 -80 -80 -80 -130 0 -50 35 -107 80 -130 39 -20 53 -20 2480
-20 2427 0 2441 0 2480 20 45 23 80 80 80 130 0 50 -35 107 -80 130 -31 16
-59 20 -135 20 l-95 0 0 1495 c0 1479 0 1496 -20 1535 -13 26 -34 47 -60 60
-37 19 -58 20 -372 20 -312 -1 -335 -2 -370 -21z"/>
</g>
</svg>
